<svg version="1.1" id="Layer_1" xmlns="http://www.w3.org/2000/svg" xmlns:xlink="http://www.w3.org/1999/xlink" x="0px" y="0px" viewBox="0 0 23 29" style="enable-background:new 0 0 23 29;" xml:space="preserve">
<g id="hangman_2_">
<path d="M20,27V0h-2H2v2h3v4.277C4.705,6.106,4.366,6,4,6C2.894,6,2,6.896,2,8c0,0.366,0.105,0.705,0.277,1H0v7h1v-6h1v14h2v-9h1v9
		h2V10h1v6h1V9H6V2h5.586L18,8.415V27h-3v2h8v-2H20z M14.414,2H18v3.587L14.414,2z" id="id_101" style="fill: rgb(255, 255, 255);"></path>
</g>
</svg>