<?xml version="1.0" encoding="UTF-8"?>
<!DOCTYPE svg PUBLIC "-//W3C//DTD SVG 1.1//EN" "http://www.w3.org/Graphics/SVG/1.1/DTD/svg11.dtd">
<!-- Creator: CorelDRAW -->
<svg xmlns="http://www.w3.org/2000/svg" xml:space="preserve" width="6.82666in" height="6.82666in" style="shape-rendering:geometricPrecision; text-rendering:geometricPrecision; image-rendering:optimizeQuality; fill-rule:evenodd; clip-rule:evenodd"
viewBox="0 0 6.82666 6.82666"
 xmlns:xlink="http://www.w3.org/1999/xlink">
 <defs>
  <style type="text/css">
   <![CDATA[
    .fil1 {fill:#FEFEFE;fill-rule:nonzero}
    .fil0 {fill:url(#id0)}
   ]]>
  </style>
  <linearGradient id="id0" gradientUnits="userSpaceOnUse" x1="1.68784" y1="0.424697" x2="5.13882" y2="6.40196">
   <stop offset="0" style="stop-color:#444FF5"/>
   <stop offset="0.490196" style="stop-color:#21BFDB"/>
   <stop offset="1" style="stop-color:#1DABB6"/>
  </linearGradient>
 </defs>
 <g id="Layer_x0020_1">
  <metadata id="CorelCorpID_0Corel-Layer"/>
  <path class="fil0" d="M6.36936 1.70667c0.942567,1.63257 0.383209,3.72013 -1.24937,4.6627 -1.63257,0.942567 -3.72013,0.383209 -4.6627,-1.24937 -0.942567,-1.63257 -0.383209,-3.72013 1.24937,-4.6627 1.63257,-0.942567 3.72013,-0.383209 4.6627,1.24937z"/>
  <g id="_431982832">
   <path id="_431982304" class="fil1" d="M1.15291 2.10581l4.52083 0c0.0402677,0 0.0729134,0.0326496 0.0729134,0.0729173l0 2.95942c0,0.0402717 -0.0326457,0.0729173 -0.0729134,0.0729173l-4.52083 0c-0.0402677,0 -0.0729134,-0.0326457 -0.0729134,-0.0729173l0 -2.95942c0,-0.0402677 0.0326457,-0.0729173 0.0729134,-0.0729173zm4.44792 0.145835l-4.375 0 0 2.81359 4.375 0 0 -2.81359z"/>
   <path id="_431982448" class="fil1" d="M2.67801 1.6156l1.47064 0c0.0402677,0 0.0729134,0.0326457 0.0729134,0.0729173l0 0.490209c0,0.0402717 -0.0326457,0.0729173 -0.0729134,0.0729173l-1.47064 0c-0.0402677,0 -0.0729134,-0.0326457 -0.0729134,-0.0729173l0 -0.490209c0,-0.0402717 0.0326457,-0.0729173 0.0729134,-0.0729173zm1.39772 0.145835l-1.3248 0 0 0.344374 1.3248 0 0 -0.344374z"/>
   <g>
    <path id="_431982760" class="fil1" d="M5.03858 1.88874c0,-0.0402677 -0.0326496,-0.0729134 -0.0729173,-0.0729134 -0.0402677,0 -0.0729173,0.0326457 -0.0729173,0.0729134l0 0.283689c0,0.0402677 0.0326496,0.0729134 0.0729173,0.0729134 0.0402677,0 0.0729173,-0.0326457 0.0729173,-0.0729134l0 -0.283689z"/>
    <path id="_431982808" class="fil1" d="M1.93391 1.8842c0,-0.0402677 -0.0326496,-0.0729134 -0.0729173,-0.0729134 -0.0402677,0 -0.0729173,0.0326457 -0.0729173,0.0729134l0 0.283689c0,0.0402677 0.0326496,0.0729134 0.0729173,0.0729134 0.0402677,0 0.0729173,-0.0326457 0.0729173,-0.0729134l0 -0.283689z"/>
   </g>
   <path id="_431982400" class="fil1" d="M1.57958 4.38438c-0.0402717,0 -0.0729173,0.0326457 -0.0729173,0.0729173 0,0.0402677 0.0326457,0.0729173 0.0729173,0.0729173l3.6675 0c0.0402717,0 0.0729173,-0.0326496 0.0729173,-0.0729173 0,-0.0402717 -0.0326457,-0.0729173 -0.0729173,-0.0729173l-3.6675 0z"/>
  </g>
 </g>
</svg>
