<svg version="1.1" id="Layer_1" xmlns="http://www.w3.org/2000/svg" xmlns:xlink="http://www.w3.org/1999/xlink" x="0px" y="0px" viewBox="0 0 520 520" style="enable-background:new 0 0 520 520;" xml:space="preserve">
<g id="_x34_42_x2C__Tic_Tac_Toe_x2C__Hobbies_x2C__Hobby">
<g>
<path d="M224.3,300.8c16.9,0,30.6-13.7,30.6-30.6s-13.7-30.6-30.6-30.6s-30.6,13.7-30.6,30.6S207.4,300.8,224.3,300.8z M224.3,260
			c5.6,0,10.2,4.6,10.2,10.2s-4.6,10.2-10.2,10.2c-5.6,0-10.2-4.6-10.2-10.2S218.6,260,224.3,260z" id="id_101" style="fill: rgb(250, 254, 255);"></path>
<path d="M112,346.7c-16.9,0-30.6,13.7-30.6,30.6s13.7,30.6,30.6,30.6s30.6-13.7,30.6-30.6C142.7,360.5,128.9,346.7,112,346.7z
			 M112,387.5c-5.6,0-10.2-4.6-10.2-10.2s4.6-10.2,10.2-10.2s10.2,4.6,10.2,10.2C122.2,383,117.7,387.5,112,387.5z" id="id_102" style="fill: rgb(255, 255, 255);"></path>
<path d="M336.5,193.7c16.9,0,30.6-13.7,30.6-30.6s-13.7-30.6-30.6-30.6s-30.6,13.7-30.6,30.6C305.9,179.9,319.6,193.7,336.5,193.7
			z M336.5,152.9c5.6,0,10.2,4.6,10.2,10.2c0,5.6-4.6,10.2-10.2,10.2s-10.2-4.6-10.2-10.2C326.3,157.4,330.9,152.9,336.5,152.9z" id="id_103" style="fill: rgb(255, 255, 255);"></path>
<path d="M112,193.7c16.9,0,30.6-13.7,30.6-30.6s-13.7-30.6-30.6-30.6s-30.6,13.7-30.6,30.6C81.4,179.9,95.2,193.7,112,193.7z
			 M112,152.9c5.6,0,10.2,4.6,10.2,10.2c0,5.6-4.6,10.2-10.2,10.2s-10.2-4.6-10.2-10.2C101.8,157.4,106.4,152.9,112,152.9z" id="id_104" style="fill: rgb(255, 255, 255);"></path>
<path d="M81.4,305.9c3,0,6-1.3,8-3.8l12.4-15.5l12.4,15.5c3.5,4.4,9.9,5.1,14.3,1.6s5.1-9.9,1.6-14.3l-15.3-19.1l15.3-19.1
			c3.5-4.4,2.8-10.8-1.6-14.3c-4.4-3.5-10.8-2.8-14.3,1.6L101.8,254l-12.4-15.5c-3.5-4.4-9.9-5.1-14.3-1.6s-5.1,9.9-1.6,14.3
			l15.3,19.1l-15.3,19.1C68.1,296.1,73,305.9,81.4,305.9z" id="id_105" style="fill: rgb(255, 255, 255);"></path>
<path d="M203.9,193.7c3,0,6-1.3,8-3.8l12.4-15.5l12.4,15.5c3.5,4.4,9.9,5.1,14.3,1.6c4.4-3.5,5.1-9.9,1.6-14.3L237.3,158
			l15.3-19.1c3.5-4.4,2.8-10.8-1.6-14.3c-4.4-3.5-10.8-2.8-14.3,1.6l-12.4,15.5l-12.4-15.5c-3.5-4.4-9.9-5.1-14.3-1.6
			c-4.4,3.5-5.1,9.9-1.6,14.3l15.3,19.1L196,177.1C190.5,183.8,195.4,193.7,203.9,193.7z" id="id_106" style="fill: rgb(255, 255, 255);"></path>
<path d="M459,152.9c-10.7,0-20.7,5.7-26.2,14.8l-14.6,24.2v-43.7c0-31.2-25.4-56.6-56.6-56.6H87c-31.2,0-56.6,25.4-56.6,56.6
			v254.1c0,31.2,25.4,56.6,56.6,56.6h274.5c31.2,0,56.6-25.4,56.6-56.6v-91.7l67-111.4C497.5,178.8,482.6,152.9,459,152.9z
			 M464.2,174.7c4.8,2.9,6.4,9.2,3.5,14l-10.5,17.5l-17.5-10.5l10.5-17.5C453.1,173.3,459.4,171.8,464.2,174.7z M358.4,370.3
			l-19.3,12.2l1.8-22.7l88.2-146.5l17.5,10.5L358.4,370.3z M397.7,402.3c0,20-16.3,36.2-36.2,36.2H87c-20,0-36.2-16.2-36.2-36.2
			v-254c0-20,16.3-36.2,36.2-36.2h274.5c20,0,36.2,16.2,36.2,36.2v77.6l-31.5,52.4l-6.4-8l15.3-19.1c3.5-4.4,2.8-10.8-1.6-14.3
			s-10.8-2.8-14.3,1.6L346.8,254l-12.4-15.5c-3.5-4.4-9.9-5.1-14.3-1.6s-5.1,9.9-1.6,14.3l15.3,19.1l-15.3,19.1
			c-3.5,4.4-2.8,10.8,1.6,14.3c4.5,3.6,10.9,2.8,14.3-1.6l12.4-15.5l8.3,10.3l-11.6,19.3h-47.7v-91.8h81.6c5.6,0,10.2-4.6,10.2-10.2
			c0-5.6-4.6-10.2-10.2-10.2h-81.6v-61.2c0-5.6-4.6-10.2-10.2-10.2s-10.2,4.6-10.2,10.2V204h-102v-61.2c0-5.6-4.6-10.2-10.2-10.2
			c-5.6,0-10.2,4.6-10.2,10.2V204H71.2c-5.6,0-10.2,4.6-10.2,10.2c0,5.6,4.6,10.2,10.2,10.2h81.6v91.8H71.2
			c-5.6,0-10.2,4.6-10.2,10.2s4.6,10.2,10.2,10.2h81.6V408c0,5.6,4.6,10.2,10.2,10.2c5.6,0,10.2-4.6,10.2-10.2v-71.4h102V408
			c0,5.6,4.6,10.2,10.2,10.2s10.2-4.6,10.2-10.2v-71.4H331c-8.2,14.1-10,15.1-10.3,19.2l-3.6,45.5c-0.7,8.4,8.6,13.9,15.6,9.4
			c40-25.8,39.7-24.2,41.8-27.8l23.1-38.3v57.7H397.7z M275.3,316.1h-102v-91.8h102V316.1z" id="id_107" style="fill: rgb(255, 255, 255);"></path>
<path d="M453.9,428.4c-14.1,0-25.5,11.4-25.5,25.5s11.4,25.5,25.5,25.5s25.5-11.4,25.5-25.5S467.9,428.4,453.9,428.4z M453.9,459
			c-2.8,0-5.1-2.3-5.1-5.1s2.3-5.1,5.1-5.1c2.8,0,5.1,2.3,5.1,5.1C458.9,456.7,456.7,459,453.9,459z" id="id_108" style="fill: rgb(255, 255, 255);"></path>
<path d="M428.3,91.7c16.9,0,30.6-13.7,30.6-30.6s-13.7-30.6-30.6-30.6s-30.6,13.7-30.6,30.6C397.7,77.9,411.5,91.7,428.3,91.7z
			 M428.3,50.8c5.6,0,10.2,4.6,10.2,10.2s-4.6,10.2-10.2,10.2s-10.2-4.6-10.2-10.2C418.1,55.4,422.7,50.8,428.3,50.8z" id="id_109" style="fill: rgb(255, 255, 255);"></path>
<path d="M152.9,61c5.6,0,10.2-4.6,10.2-10.2s-4.6-10.2-10.2-10.2c-5.6,0-10.2,4.6-10.2,10.2C142.7,56.5,147.2,61,152.9,61z" id="id_110" style="fill: rgb(255, 255, 255);"></path>
<path d="M448.8,112.1c0,5.6,4.6,10.2,10.2,10.2s10.2-4.6,10.2-10.2s-4.6-10.2-10.2-10.2C453.3,101.9,448.8,106.4,448.8,112.1z" id="id_111" style="fill: rgb(255, 255, 255);"></path>
<path d="M234.5,469.2c-5.6,0-10.2,4.6-10.2,10.2s4.6,10.2,10.2,10.2c5.6,0,10.2-4.6,10.2-10.2
			C244.7,473.7,240.1,469.2,234.5,469.2z" id="id_112" style="fill: rgb(255, 255, 255);"></path>
</g>
</g>
<g id="Layer_1_1_">
</g>
</svg>